<?xml version="1.0" encoding="UTF-8" standalone="no"?>
<!-- Generator: Adobe Illustrator 18.0.0, SVG Export Plug-In . SVG Version: 6.00 Build 0)  -->

<svg
   xmlns:dc="http://purl.org/dc/elements/1.1/"
   xmlns:cc="http://creativecommons.org/ns#"
   xmlns:rdf="http://www.w3.org/1999/02/22-rdf-syntax-ns#"
   xmlns:svg="http://www.w3.org/2000/svg"
   xmlns="http://www.w3.org/2000/svg"
   xmlns:sodipodi="http://sodipodi.sourceforge.net/DTD/sodipodi-0.dtd"
   xmlns:inkscape="http://www.inkscape.org/namespaces/inkscape"
   version="1.1"
   id="Capa_1"
   x="0px"
   y="0px"
   viewBox="0 0 487.396 487.396"
   style="enable-background:new 0 0 487.396 487.396;"
   xml:space="preserve"
   inkscape:version="0.91 r13725"
   sodipodi:docname="add.svg"><metadata
     id="metadata45"><rdf:RDF><cc:Work
         rdf:about=""><dc:format>image/svg+xml</dc:format><dc:type
           rdf:resource="http://purl.org/dc/dcmitype/StillImage" /><dc:title></dc:title></cc:Work></rdf:RDF></metadata><defs
     id="defs43" /><sodipodi:namedview
     pagecolor="#ffffff"
     bordercolor="#666666"
     borderopacity="1"
     objecttolerance="10"
     gridtolerance="10"
     guidetolerance="10"
     inkscape:pageopacity="0"
     inkscape:pageshadow="2"
     inkscape:window-width="1366"
     inkscape:window-height="705"
     id="namedview41"
     showgrid="false"
     inkscape:zoom="1.0771529"
     inkscape:cx="79.264875"
     inkscape:cy="294.69217"
     inkscape:window-x="-8"
     inkscape:window-y="-8"
     inkscape:window-maximized="1"
     inkscape:current-layer="Capa_1" /><g
     id="g11" /><g
     id="g13" /><g
     id="g15" /><g
     id="g17" /><g
     id="g19" /><g
     id="g21" /><g
     id="g23" /><g
     id="g25" /><g
     id="g27" /><g
     id="g29" /><g
     id="g31" /><g
     id="g33" /><g
     id="g35" /><g
     id="g37" /><g
     id="g39" /><path
     style="fill:#00cf05;fill-opacity:1;fill-rule:evenodd;stroke:#007d03;stroke-width:16.3;stroke-linecap:round;stroke-linejoin:round;stroke-miterlimit:4;stroke-dasharray:none;stroke-dashoffset:0;stroke-opacity:1"
     d="m 208.60215,16.498851 c -1.52605,0 -2.75585,1.523995 -2.75585,3.416016 l 0,183.650423 -183.652317,0 c -1.892021,0 -3.414062,1.22981 -3.414062,2.75586 l 0,72.47461 c 0,1.52604 1.522041,2.7539 3.414062,2.7539 l 183.652317,0 0,183.65235 c 0,1.89202 1.2298,3.41406 2.75585,3.41406 l 72.47263,0 c 1.52605,0 2.75586,-1.52204 2.75586,-3.41406 l 0,-183.65235 183.65227,0 c 1.89202,0 3.41406,-1.22786 3.41406,-2.7539 l 0,-72.47461 c 0,-1.52605 -1.52204,-2.75586 -3.41406,-2.75586 l -183.65227,0 0,-183.650423 c 0,-1.892021 -1.22981,-3.416016 -2.75586,-3.416016 l -72.47263,0 z"
     id="rect4160"
     inkscape:connector-curvature="0" /></svg>