<?xml version="1.0" encoding="UTF-8" standalone="no"?>
<!-- Generator: Adobe Illustrator 18.0.0, SVG Export Plug-In . SVG Version: 6.00 Build 0)  -->

<svg
   xmlns:dc="http://purl.org/dc/elements/1.1/"
   xmlns:cc="http://creativecommons.org/ns#"
   xmlns:rdf="http://www.w3.org/1999/02/22-rdf-syntax-ns#"
   xmlns:svg="http://www.w3.org/2000/svg"
   xmlns="http://www.w3.org/2000/svg"
   xmlns:sodipodi="http://sodipodi.sourceforge.net/DTD/sodipodi-0.dtd"
   xmlns:inkscape="http://www.inkscape.org/namespaces/inkscape"
   version="1.1"
   id="Capa_1"
   x="0px"
   y="0px"
   viewBox="0 0 487.396 487.396"
   style="enable-background:new 0 0 487.396 487.396;"
   xml:space="preserve"
   inkscape:version="0.91 r13725"
   sodipodi:docname="cocheRojo.svg"><metadata
     id="metadata45"><rdf:RDF><cc:Work
         rdf:about=""><dc:format>image/svg+xml</dc:format><dc:type
           rdf:resource="http://purl.org/dc/dcmitype/StillImage" /><dc:title></dc:title></cc:Work></rdf:RDF></metadata><defs
     id="defs43" /><sodipodi:namedview
     pagecolor="#ffffff"
     bordercolor="#666666"
     borderopacity="1"
     objecttolerance="10"
     gridtolerance="10"
     guidetolerance="10"
     inkscape:pageopacity="0"
     inkscape:pageshadow="2"
     inkscape:window-width="1366"
     inkscape:window-height="705"
     id="namedview41"
     showgrid="false"
     inkscape:zoom="1.0771529"
     inkscape:cx="243.698"
     inkscape:cy="243.698"
     inkscape:window-x="-8"
     inkscape:window-y="-8"
     inkscape:window-maximized="1"
     inkscape:current-layer="Capa_1" /><ellipse
     style="fill:#4c4c4c;fill-opacity:1;fill-rule:evenodd;stroke:none;stroke-width:5.69999981;stroke-linecap:round;stroke-linejoin:round;stroke-miterlimit:4;stroke-dasharray:none;stroke-dashoffset:0;stroke-opacity:1"
     id="path4187-8"
     cx="366.70746"
     cy="273.87015"
     rx="49.203785"
     ry="48.739601"
     inkscape:export-filename="C:\Users\Antonio\Google Drive\JuegosDeMesa\cocheRojo.png"
     inkscape:export-xdpi="53.549999"
     inkscape:export-ydpi="53.549999" /><ellipse
     style="fill:#4c4c4c;fill-opacity:1;fill-rule:evenodd;stroke:none;stroke-width:5.69999981;stroke-linecap:round;stroke-linejoin:round;stroke-miterlimit:4;stroke-dasharray:none;stroke-dashoffset:0;stroke-opacity:1"
     id="path4187"
     cx="142.9695"
     cy="275.2627"
     rx="49.203785"
     ry="48.739601"
     inkscape:export-filename="C:\Users\Antonio\Google Drive\JuegosDeMesa\cocheRojo.png"
     inkscape:export-xdpi="53.549999"
     inkscape:export-ydpi="53.549999" /><path
     style="fill:#ff0000;fill-rule:evenodd;stroke:#000000;stroke-width:1px;stroke-linecap:butt;stroke-linejoin:miter;stroke-opacity:1"
     d="m 412.19776,297.07946 68.69962,-0.92837 -0.92837,-25.99445 -64.05776,0.92837 z"
     id="path4185"
     inkscape:connector-curvature="0"
     inkscape:export-filename="C:\Users\Antonio\Google Drive\JuegosDeMesa\cocheRojo.png"
     inkscape:export-xdpi="53.549999"
     inkscape:export-ydpi="53.549999" /><path
     style="fill:#ff7878;fill-rule:evenodd;stroke:#000000;stroke-width:1px;stroke-linecap:butt;stroke-linejoin:miter;stroke-opacity:1;fill-opacity:1"
     d="m 407.55589,234.87845 60.34427,18.56747 -0.92838,14.85397 -51.9889,0.92837 z"
     id="path4183"
     inkscape:connector-curvature="0"
     inkscape:export-filename="C:\Users\Antonio\Google Drive\JuegosDeMesa\cocheRojo.png"
     inkscape:export-xdpi="53.549999"
     inkscape:export-ydpi="53.549999" /><path
     style="fill:#ff7878;fill-rule:evenodd;stroke:#000000;stroke-width:1px;stroke-linecap:butt;stroke-linejoin:miter;stroke-opacity:1;fill-opacity:1"
     d="m 319.36042,296.15109 -0.92837,-44.56192 18.56747,-26.92283 -80.76848,0 -18.56747,-53.84565 -90.05221,12.99723 164.32208,116.97504 z"
     id="path4181"
     inkscape:connector-curvature="0"
     inkscape:export-filename="C:\Users\Antonio\Google Drive\JuegosDeMesa\cocheRojo.png"
     inkscape:export-xdpi="53.549999"
     inkscape:export-ydpi="53.549999" /><path
     style="fill:#f72e2e;fill-rule:evenodd;stroke:#000000;stroke-width:1px;stroke-linecap:butt;stroke-linejoin:miter;stroke-opacity:1;fill-opacity:1"
     d="m 91.908959,203.31376 55.702401,-19.49584 155.96672,113.26154 -110.47643,-0.92837 0,-43.63355 -38.0633,-29.70794 -45.4903,4.64186 z"
     id="path4179"
     inkscape:connector-curvature="0"
     inkscape:export-filename="C:\Users\Antonio\Google Drive\JuegosDeMesa\cocheRojo.png"
     inkscape:export-xdpi="53.549999"
     inkscape:export-ydpi="53.549999" /><path
     style="fill:#ff0000;fill-rule:evenodd;stroke:#000000;stroke-width:1px;stroke-linecap:butt;stroke-linejoin:miter;stroke-opacity:1"
     d="m 7.4269866,191.24491 20.4242134,14.85397 5.57024,88.19546 38.991679,2.78512 -3.713493,-133.68575 -64.0577594,0 z"
     id="path4173"
     inkscape:connector-curvature="0"
     inkscape:export-filename="C:\Users\Antonio\Google Drive\JuegosDeMesa\cocheRojo.png"
     inkscape:export-xdpi="53.549999"
     inkscape:export-ydpi="53.549999" /><g
     id="g3"
     inkscape:export-filename="C:\Users\Antonio\Google Drive\JuegosDeMesa\cocheRojo.png"
     inkscape:export-xdpi="53.549999"
     inkscape:export-ydpi="53.549999"><path
       d="M365.789,250.324c-12.297,0-22.302,10.006-22.302,22.304c0,12.297,10.005,22.301,22.302,22.301   c12.297,0,22.302-10.004,22.302-22.301C388.09,260.33,378.086,250.324,365.789,250.324z M365.789,280.928   c-4.578,0-8.302-3.724-8.302-8.301c0-4.579,3.725-8.304,8.302-8.304c4.578,0,8.302,3.725,8.302,8.304   C374.09,277.205,370.366,280.928,365.789,280.928z"
       id="path5" /><path
       d="M480.396,262.494h-6.083V250.96c0-3.137-2.086-5.89-5.105-6.738l-71.258-20.035c-0.642-0.181-1.287-0.26-1.922-0.258   c-8.785-5.475-19.146-8.65-30.238-8.65c-7.022,0-13.749,1.274-19.972,3.594c-0.11-0.005-0.219-0.017-0.33-0.017h-75.298v-4.23   c0.666-2.907,3.251-4.986,6.263-4.986h11.708c1.148,0,2.24-0.493,2.999-1.352c0.759-0.86,1.112-2.006,0.97-3.144   c-1.949-15.574-15.264-27.318-30.973-27.318c-4.861,0-9.657,1.145-13.987,3.316v-8.4c0-3.866-3.134-7-7-7   c-57.5,0-112.723,12.182-164.273,36.204v-37.524c0-3.866-3.134-7-7-7H7c-3.866,0-7,3.134-7,7v29.175   c0,2.52,1.354,4.845,3.545,6.088l20.722,11.762v86.951c0,3.866,3.134,7,7,7h64.8c10.375,14.844,27.579,24.579,47.023,24.579   c19.444,0,36.647-9.735,47.022-24.579h128.652c10.375,14.844,27.579,24.579,47.023,24.579c19.444,0,36.647-9.735,47.022-24.579   h67.585c3.866,0,7-3.134,7-7v-28.902C487.396,265.628,484.262,262.494,480.396,262.494z M460.312,262.494h-38.091   c-1.217-6.791-3.627-13.17-7.015-18.912l45.105,12.683V262.494z M200.417,271.812c-0.44-31.247-25.979-56.534-57.327-56.534   c-7.019,0-13.744,1.273-19.965,3.592l-19.708-13.5c12.893-5.055,26.003-9.364,39.308-12.93c0.249,0.23,0.51,0.45,0.798,0.647   l143.521,98.309h-58.037L200.417,271.812z M311.548,291.211l-150.61-103.164c23.551-5.044,47.668-7.796,72.23-8.235v18.627   c0,18.979,15.44,34.418,34.418,34.418h56.944c-9.951,10.319-16.09,24.338-16.09,39.771   C308.44,279.131,309.544,285.379,311.548,291.211z M61.357,291.396h-23.09v-84.027c0-2.52-1.354-4.844-3.545-6.088L14,189.519   v-18.099h47.895v119.975H61.357z M143.09,315.975c-23.902,0-43.348-19.445-43.348-43.348c0-23.903,19.446-43.35,43.348-43.35   c23.902,0,43.347,19.446,43.347,43.35c0,7.558-1.948,14.667-5.363,20.859c-0.764,0.775-1.348,1.727-1.685,2.791   C171.645,308.125,158.271,315.975,143.09,315.975z M365.789,315.975c-23.902,0-43.348-19.445-43.348-43.348   c0-23.902,19.446-43.349,43.348-43.349c23.902,0,43.347,19.446,43.347,43.349C409.136,296.53,389.69,315.975,365.789,315.975z    M473.396,291.396h-53.43c1.64-4.721,2.678-9.717,3.025-14.902h50.405V291.396z"
       id="path7" /><path
       d="M143.09,250.324c-12.297,0-22.302,10.006-22.302,22.304c0,12.297,10.005,22.301,22.302,22.301   c12.297,0,22.302-10.004,22.302-22.301C165.392,260.33,155.388,250.324,143.09,250.324z M143.09,280.928   c-4.578,0-8.302-3.724-8.302-8.301c0-4.579,3.725-8.304,8.302-8.304c4.578,0,8.302,3.725,8.302,8.304   C151.392,277.205,147.668,280.928,143.09,280.928z"
       id="path9" /></g><g
     id="g11" /><g
     id="g13" /><g
     id="g15" /><g
     id="g17" /><g
     id="g19" /><g
     id="g21" /><g
     id="g23" /><g
     id="g25" /><g
     id="g27" /><g
     id="g29" /><g
     id="g31" /><g
     id="g33" /><g
     id="g35" /><g
     id="g37" /><g
     id="g39" /><path
     style="fill:none;fill-rule:evenodd;stroke:#000000;stroke-width:1px;stroke-linecap:butt;stroke-linejoin:miter;stroke-opacity:1"
     d="M 92.837333,205.17051 148.53973,184.74629"
     id="path4175"
     inkscape:connector-curvature="0"
     inkscape:export-filename="C:\Users\Antonio\Google Drive\JuegosDeMesa\cocheRojo.png"
     inkscape:export-xdpi="53.549999"
     inkscape:export-ydpi="53.549999" /><path
     style="fill:none;fill-rule:evenodd;stroke:#000000;stroke-width:1px;stroke-linecap:butt;stroke-linejoin:miter;stroke-opacity:1"
     d="M 301.72133,297.07946 144.82624,183.81792"
     id="path4177"
     inkscape:connector-curvature="0"
     inkscape:export-filename="C:\Users\Antonio\Google Drive\JuegosDeMesa\cocheRojo.png"
     inkscape:export-xdpi="53.549999"
     inkscape:export-ydpi="53.549999" /></svg>